<?xml version="1.0" encoding="UTF-8"?>
<svg width="122px" height="27px" viewBox="0 0 122 27" version="1.1" xmlns="http://www.w3.org/2000/svg" xmlns:xlink="http://www.w3.org/1999/xlink">
    <!-- Generator: Sketch 55.2 (78181) - https://sketchapp.com -->
    <title>Rock-IT_logo_with_descr Copy</title>
    <desc>Created with Sketch.</desc>
    <defs>
        <polygon id="path-1" points="0 27.125 123.436151 27.125 123.436151 0 0 0"></polygon>
    </defs>
    <g id="Icons" stroke="none" stroke-width="1" fill="none" fill-rule="evenodd">
        <g id="Artboard" transform="translate(-277.000000, -423.000000)">
            <g id="Rock-IT_logo_with_descr-Copy" transform="translate(277.000000, 422.000000)">
                <path d="M16.1563811,19.0534481 C18.1064566,18.5258632 19.740683,17.4975991 21.0064189,15.8633726 C22.3236264,14.2034104 22.9564943,12.3059764 22.9564943,10.1979764 C22.9822302,7.64076887 22.0861547,5.53159906 20.3209094,3.76635377 C18.5544943,1.99993868 16.4207585,1.07812736 13.9161925,1.07812736 L4.48049434,1.07812736 L1.00147547,1.07812736 L0.000116981132,1.07812736 L5.53449434,8.19408962 L5.5614,8.19408962 L10.2792491,14.2560519 L14.7596264,14.2560519 L9.22524906,7.14008962 L9.1983434,7.14008962 L7.18743774,4.55714623 L13.9161925,4.55714623 C15.4708717,4.55714623 16.8149849,5.11046698 17.8689849,6.19137264 C18.9767962,7.29801415 19.530117,8.61639151 19.530117,10.1979764 C19.530117,11.7526557 18.9767962,13.0967689 17.8689849,14.2034104 C16.8149849,15.3100519 15.4708717,15.8633726 13.9161925,15.8633726 L7.03770189,15.8633726 L3.58441887,15.8633726 L3.58441887,15.9429198 L3.58441887,27.1707689 L7.03770189,27.1707689 L7.03770189,19.3435613 C7.03770189,19.3435613 13.6787208,19.2640142 14.2320415,19.2640142 C15.5504189,19.2640142 16.1563811,19.0534481 16.1563811,19.0534481" id="Fill-1" fill="#000000"></path>
                <polygon id="Fill-3" fill="#000000" points="18.4497962 20.8452481 13.9682491 20.8452481 18.7130038 27.1704179 23.1933811 27.1704179"></polygon>
                <mask id="mask-2" fill="white">
                    <use xlink:href="#path-1"></use>
                </mask>
                <g id="Clip-5"></g>
                <text id="o" mask="url(#mask-2)" font-family="Stark" font-size="35.1208943" font-weight="normal" fill="#000000">
                    <tspan x="24.335234" y="27.1652098">o</tspan>
                </text>
                <text id="ck" mask="url(#mask-2)" font-family="Stark" font-size="35.1208943" font-weight="normal" fill="#000000">
                    <tspan x="44.7755945" y="27.1652098">ck</tspan>
                </text>
                <text id="-IT" mask="url(#mask-2)" font-family="Stark" font-size="35.1208943" font-weight="normal" letter-spacing="0.339510832" fill="#000000">
                    <tspan x="78.9833456" y="27.1652098">-</tspan>
                    <tspan x="94.2492365" y="27.1652098" letter-spacing="-0.0116981132">IT</tspan>
                </text>
            </g>
        </g>
    </g>
</svg>