<?xml version="1.0" encoding="UTF-8"?>
<svg width="30px" height="34px" viewBox="0 0 30 34" version="1.1" xmlns="http://www.w3.org/2000/svg" xmlns:xlink="http://www.w3.org/1999/xlink">
    <!-- Generator: Sketch 55.2 (78181) - https://sketchapp.com -->
    <title>Logo_R_white (1)</title>
    <desc>Created with Sketch.</desc>
    <defs>
        <polygon id="path-1" points="0 2.94117647e-05 29.694102 2.94117647e-05 29.694102 33.75 0 33.75"></polygon>
        <polygon id="path-3" points="0.0537352941 0.0536544118 11.9852794 0.0536544118 11.9852794 8.23529412 0.0537352941 8.23529412"></polygon>
    </defs>
    <g id="Icons" stroke="none" stroke-width="1" fill="none" fill-rule="evenodd">
        <g id="Artboard" transform="translate(-460.000000, -193.000000)">
            <g id="Logo_R_white-(1)" transform="translate(460.000000, 193.000000)">
                <g id="Group-3">
                    <mask id="mask-2" fill="white">
                        <use xlink:href="#path-1"></use>
                    </mask>
                    <g id="Clip-2"></g>
                    <path d="M20.8977941,23.2500294 C23.4205882,22.5683382 25.5338235,21.2389265 27.1705882,19.1249559 C28.875,16.9771618 29.6933824,14.5228235 29.6933824,11.7956176 C29.7272059,8.48679412 28.5683824,5.76098529 26.2838235,3.47723529 C23.9992647,1.19341176 21.2389706,2.94117647e-05 18,2.94117647e-05 L0,2.94117647e-05 L7.15882353,9.20436765 L7.19338235,9.20436765 L13.2963235,17.0455441 L19.0919118,17.0455441 L11.9316176,7.84113235 L11.8977941,7.84113235 L9.29779412,4.50002941 L18,4.50002941 C20.0110294,4.50002941 21.75,5.21620588 23.1139706,6.614 C24.5455882,8.04561765 25.2610294,9.74995588 25.2610294,11.7956176 C25.2610294,13.8066471 24.5455882,15.5456176 23.1139706,16.9771618 C21.75,18.4087794 20.0110294,19.1249559 18,19.1249559 L4.63602941,19.1249559 L4.63602941,33.7500294 L9.10220588,33.7500294 L9.10220588,23.6250294 C9.10220588,23.6250294 17.6933824,23.5228235 18.4088235,23.5228235 C20.1139706,23.5228235 20.8977941,23.2500294 20.8977941,23.2500294" id="Fill-1" fill="#FFFFFF" mask="url(#mask-2)"></path>
                </g>
                <g id="Group-6" transform="translate(18.014706, 25.514706)">
                    <mask id="mask-4" fill="white">
                        <use xlink:href="#path-3"></use>
                    </mask>
                    <g id="Clip-5"></g>
                    <polygon id="Fill-4" fill="#FFFFFF" mask="url(#mask-4)" points="5.84925 0.0536544118 0.0537352941 0.0536544118 6.18969118 8.23534559 11.9852794 8.23534559"></polygon>
                </g>
            </g>
        </g>
    </g>
</svg>